<?xml version="1.0" encoding="UTF-8" standalone="no"?>
<svg
   xmlns:dc="http://purl.org/dc/elements/1.1/"
   xmlns:cc="http://creativecommons.org/ns#"
   xmlns:rdf="http://www.w3.org/1999/02/22-rdf-syntax-ns#"
   xmlns:svg="http://www.w3.org/2000/svg"
   xmlns="http://www.w3.org/2000/svg"
   width="33.333401"
   height="33.333401"
   viewBox="0 0 33.333401 33.333401"
   fill="none"
   version="1.1"
   id="svg18">
  <metadata
     id="metadata24">
    <rdf:RDF>
      <cc:Work
         rdf:about="">
        <dc:format>image/svg+xml</dc:format>
        <dc:type
           rdf:resource="http://purl.org/dc/dcmitype/StillImage" />
        <dc:title></dc:title>
      </cc:Work>
    </rdf:RDF>
  </metadata>
  <defs
     id="defs22" />
  <circle
     cx="16.6667"
     cy="16.6667"
     r="16.6667"
     fill="#f6931a"
     id="circle4" />
  <rect
     x="16.951176"
     y="1.7685292"
     width="1.85884"
     height="20.368"
     transform="rotate(14.0404)"
     fill="#ffffff"
     id="rect6" />
  <rect
     x="20.255892"
     y="1.697997"
     width="1.85884"
     height="20.368"
     transform="rotate(14.0404)"
     fill="#ffffff"
     id="rect8" />
  <path
     d="m 11.561,7.9103004 7.9707,1.8695 c 0,0 2.1122,0.4543996 3.0761,1.3425996 0.7379,0.6799 1.2141,1.1712 1.3936,2.1583 0.1413,0.7768 0.0827,1.2918 -0.2549,2.0055 -0.3135,0.6626 -0.6079,1.054 -1.2576,1.3936 -0.2976,0.1555 -0.8158,0.2719 -0.8158,0.2719 0,0 0.9182,0.5026 1.3086,1.0197 0.492,0.6516 0.6104,1.1727 0.6458,1.9884 0.0411,0.9427 -0.1462,1.5278 -0.6458,2.3283 -0.513,0.8221 -0.9783,1.2509 -1.8694,1.6316 -0.9185,0.3923 -1.5313,0.3278 -2.5292,0.2858 -0.6547,-0.0275 -1.6856,-0.2858 -1.6856,-0.2858 l -8.8033996,-2.2094 0.9347,-2.1414 1.3935996,0.3909 c 0,0 0.3364,0.032 0.4928,-0.085 0.115,-0.086 0.204,-0.3059 0.204,-0.3059 l 2.1414,-8.4465 c 0,0 -0.0237,-0.3002 -0.119,-0.4589 -0.1041,-0.1734 -0.3909,-0.3399 -0.3909,-0.3399 L 11.0573,9.8698004 Z"
     fill="#ffffff"
     id="path10" />
  <path
     d="m 16.4368,11.3663 1.639,0.3643 c 0,0 1.2444,0.272 1.7561,0.8325 0.4076,0.4465 0.6944,0.8019 0.6504,1.4049 -0.0337,0.4623 -0.1845,0.7472 -0.5203,1.0667 -0.3534,0.3361 -0.6791,0.3744 -1.1577,0.4683 -0.6546,0.1284 -1.7041,-0.1171 -1.7041,-0.1171 l -1.574,-0.4553 z"
     fill="#f7931a"
     id="path12" />
  <path
     d="m 15.0449,16.8038 2.2244,0.5724 c 0,0 1.4168,0.3572 1.9903,1.0146 0.3614,0.4144 0.6229,0.6996 0.6504,1.2488 0.0247,0.4942 -0.096,0.8196 -0.4163,1.1968 -0.3338,0.3932 -0.673,0.4762 -1.1707,0.6114 -0.7017,0.1905 -1.8602,-0.0781 -1.8602,-0.0781 L 13.718,20.8364 Z"
     fill="#f7931a"
     id="path14" />
  <path
     d="M 16.6449,11.2102 14.0562,21.4998 11.6367,21.1356 14.8888,9.5842004 Z"
     fill="#ffffff"
     id="path16" />
</svg>
