<?xml version="1.0" encoding="utf-8"?>
<!-- Generator: Adobe Illustrator 24.1.1, SVG Export Plug-In . SVG Version: 6.00 Build 0)  -->
<svg version="1.1" id="Слой_1" xmlns="http://www.w3.org/2000/svg" xmlns:xlink="http://www.w3.org/1999/xlink" x="0px" y="0px"
	 viewBox="0 0 40 40" style="enable-background:new 0 0 40 40;" xml:space="preserve">
<style type="text/css">
	.st0{fill:#F4F7FB;}
	.st1{fill:#161616;}
	.st2{fill:#F3BA2F;}
</style>
<g>
	<circle class="st0" cx="20" cy="20" r="20"/>
	<circle class="st1" cx="20" cy="20" r="16.7"/>
	<g id="Layer_2">
		<g id="Layer_1-2">
			<path class="st2" d="M15.9,18.3l4.1-4.1l4.1,4.1l2.4-2.4L20,9.6L13.6,16L15.9,18.3 M9.6,20l2.4-2.4l2.4,2.4l-2.4,2.4L9.6,20z
				 M15.9,21.7l4.1,4.1l4.1-4.1l2.4,2.4l0,0L20,30.4L13.6,24l0,0L15.9,21.7 M25.7,20l2.4-2.4l2.4,2.4l-2.4,2.4L25.7,20z"/>
			<path class="st2" d="M22.4,20L22.4,20L20,17.6l-1.8,1.8l0,0L18,19.6L17.6,20l0,0l0,0l2.4,2.4L22.4,20L22.4,20L22.4,20"/>
		</g>
	</g>
</g>
</svg>
