<?xml version="1.0" encoding="UTF-8" standalone="no"?>
<svg
   xmlns:dc="http://purl.org/dc/elements/1.1/"
   xmlns:cc="http://creativecommons.org/ns#"
   xmlns:rdf="http://www.w3.org/1999/02/22-rdf-syntax-ns#"
   xmlns:svg="http://www.w3.org/2000/svg"
   xmlns="http://www.w3.org/2000/svg"
   width="33.333401"
   height="33.333401"
   viewBox="0 0 33.333401 33.333401"
   fill="none"
   version="1.1"
   id="svg69">
  <metadata
     id="metadata73">
    <rdf:RDF>
      <cc:Work
         rdf:about="">
        <dc:format>image/svg+xml</dc:format>
        <dc:type
           rdf:resource="http://purl.org/dc/dcmitype/StillImage" />
        <dc:title></dc:title>
      </cc:Work>
    </rdf:RDF>
  </metadata>
  <circle
     cx="16.6667"
     cy="16.6667"
     r="16.6667"
     fill="#0d4595"
     id="circle4" />
  <g
     clip-path="url(#clip0)"
     id="g58"
     transform="translate(-3.3332996,-3.3332996)">
    <path
       d="m 29.0001,24 c 0,3.3016 -2.4001,6 -5.4001,6 -2.9714,0 -5.4,-2.6984 -5.4,-6 0,-3.3016 2.4,-6 5.3715,-6 3.0285,0 5.4286,2.6984 5.4286,6 z"
       fill="#ffb600"
       id="path6" />
    <path
       d="m 23.6,18 c 2.9715,0 5.4001,2.6984 5.4001,6 0,3.3016 -2.4001,6 -5.4001,6 -2.9714,0 -5.4,-2.6984 -5.4,-6"
       fill="#f7981d"
       id="path8" />
    <path
       d="m 23.6,18 c 2.9714,0 5.4,2.6984 5.4,6 0,3.3016 -2.4,6 -5.4,6"
       fill="#ff8500"
       id="path10" />
    <path
       d="M 16.3429,18 C 13.4,18.0317 11,20.6984 11,24 c 0,3.3016 2.4,6 5.4,6 1.4,0 2.6571,-0.6032 3.6286,-1.5556 0.2,-0.1904 0.3714,-0.4127 0.5428,-0.6349 h -1.1143 c -0.1428,-0.1905 -0.2857,-0.4127 -0.4,-0.6032 h 1.9143 c 0.1143,-0.1904 0.2286,-0.4127 0.3143,-0.6349 h -2.5428 c -0.0858,-0.1905 -0.1715,-0.4127 -0.2286,-0.6349 h 2.9714 c 0.1714,-0.6032 0.2857,-1.2381 0.2857,-1.9048 0,-0.4444 -0.0571,-0.8571 -0.1143,-1.2698 h -3.3142 c 0.0285,-0.2222 0.0857,-0.4127 0.1428,-0.6349 h 2.9714 C 21.4,21.9048 21.3143,21.6825 21.2286,21.4921 h -2.5143 c 0.0857,-0.2223 0.2,-0.4127 0.3143,-0.635 h 1.9143 C 20.8286,20.6349 20.6857,20.4127 20.5143,20.2222 H 19.4571 C 19.6286,20 19.8,19.8095 20,19.619 19.0571,18.6349 17.7714,18.0635 16.3714,18.0635 16.3714,18 16.3714,18 16.3429,18 Z"
       fill="#ff5050"
       id="path12" />
    <path
       d="m 11,24 c 0,3.3016 2.4,6 5.4,6 1.4,0 2.6571,-0.6032 3.6286,-1.5556 0.2,-0.1904 0.3714,-0.4127 0.5428,-0.6349 h -1.1143 c -0.1428,-0.1905 -0.2857,-0.4127 -0.4,-0.6032 h 1.9143 C 21.0857,27.0159 21.2,26.7936 21.2857,26.5714 H 18.7429 C 18.6571,26.381 18.5714,26.1587 18.5143,25.9365 h 2.9714 c 0.1714,-0.6032 0.2857,-1.2381 0.2857,-1.9048 0,-0.4444 -0.0571,-0.8571 -0.1143,-1.2698 h -3.3142 c 0.0285,-0.2222 0.0857,-0.4127 0.1428,-0.6349 h 2.9714 C 21.4,21.9048 21.3143,21.6825 21.2286,21.4921 h -2.5143 c 0.0857,-0.2223 0.2,-0.4127 0.3143,-0.635 h 1.9143 C 20.8286,20.6349 20.6857,20.4127 20.5143,20.2222 H 19.4571 C 19.6286,20 19.8,19.8095 20,19.619 19.0571,18.6349 17.7714,18.0635 16.3714,18.0635 h -0.0285"
       fill="#e52836"
       id="path14" />
    <path
       d="m 16.4,30 c 1.4,0 2.6571,-0.6032 3.6286,-1.5556 0.2,-0.1904 0.3714,-0.4127 0.5428,-0.6349 h -1.1143 c -0.1428,-0.1905 -0.2857,-0.4127 -0.4,-0.6032 h 1.9143 C 21.0857,27.0159 21.2,26.7936 21.2857,26.5714 H 18.7428 C 18.6571,26.381 18.5714,26.1587 18.5143,25.9365 h 2.9714 c 0.1714,-0.6032 0.2857,-1.2381 0.2857,-1.9048 0,-0.4444 -0.0571,-0.8571 -0.1143,-1.2698 h -3.3143 c 0.0286,-0.2222 0.0858,-0.4127 0.1429,-0.6349 h 2.9714 C 21.4,21.9048 21.3143,21.6825 21.2286,21.4921 h -2.5143 c 0.0857,-0.2223 0.2,-0.4127 0.3143,-0.635 h 1.9142 C 20.8286,20.6349 20.6857,20.4127 20.5143,20.2222 H 19.4571 C 19.6286,20 19.8,19.8095 20,19.619 19.0571,18.6349 17.7714,18.0635 16.3714,18.0635 h -0.0286"
       fill="#cb2026"
       id="path16" />
    <path
       d="M 18.3143,25.5238 18.4,24.9841 c -0.0286,0 -0.0857,0.0318 -0.1428,0.0318 -0.2,0 -0.2286,-0.127 -0.2,-0.1905 l 0.1714,-1.1111 h 0.3143 l 0.0857,-0.6032 H 18.3429 L 18.4,22.7302 h -0.5714 c 0,0 -0.3429,2.0952 -0.3429,2.3492 0,0.3809 0.2,0.5396 0.4572,0.5396 0.1714,0 0.3143,-0.0634 0.3714,-0.0952 z"
       fill="#ffffff"
       id="path18" />
    <path
       d="m 18.5143,24.5079 c 0,0.8889 0.5429,1.1111 1,1.1111 0.4286,0 0.6,-0.0952 0.6,-0.0952 l 0.1143,-0.6032 c 0,0 -0.3143,0.1587 -0.6,0.1587 -0.6286,0 -0.5143,-0.5079 -0.5143,-0.5079 h 1.1714 c 0,0 0.0857,-0.4127 0.0857,-0.5714 0,-0.4127 -0.2,-0.9206 -0.8285,-0.9206 -0.6,-0.0635 -1.0286,0.6349 -1.0286,1.4285 z m 1,-0.9206 c 0.3143,0 0.2571,0.4127 0.2571,0.4444 h -0.6285 c 0,-0.0317 0.0571,-0.4444 0.3714,-0.4444 z"
       fill="#ffffff"
       id="path20" />
    <path
       d="m 23.1429,25.5238 0.1143,-0.6984 c 0,0 -0.2857,0.1587 -0.4857,0.1587 -0.4,0 -0.5715,-0.3492 -0.5715,-0.7302 0,-0.7619 0.3429,-1.1745 0.7429,-1.1745 0.2857,0 0.5143,0.1904 0.5143,0.1904 l 0.0857,-0.6666 c 0,0 -0.3429,-0.1588 -0.6572,-0.1588 -0.6571,0 -1.3142,0.635 -1.3142,1.8413 0,0.7936 0.3428,1.3333 1.0285,1.3333 0.2286,0 0.5429,-0.0952 0.5429,-0.0952 z"
       fill="#ffffff"
       id="path22" />
    <path
       d="m 15.1714,23.0159 c -0.4,0 -0.6857,0.127 -0.6857,0.127 L 14.4,23.6825 c 0,0 0.2572,-0.1269 0.6286,-0.1269 0.2,0 0.3714,0.0317 0.3714,0.2222 0,0.127 -0.0286,0.1587 -0.0286,0.1587 0,0 -0.1714,0 -0.2571,0 -0.4857,0 -1.0286,0.2222 -1.0286,0.9524 0,0.5714 0.3429,0.6984 0.5429,0.6984 0.4,0 0.5714,-0.2857 0.6,-0.2857 L 15.2,25.5556 h 0.5143 l 0.2286,-1.7461 c 0,-0.7619 -0.5715,-0.7936 -0.7715,-0.7936 z m 0.1143,1.4285 c 0,0.0953 -0.0571,0.6032 -0.4,0.6032 -0.1714,0 -0.2285,-0.1587 -0.2285,-0.2539 0,-0.1588 0.0857,-0.381 0.5142,-0.381 0.0858,0.0317 0.1143,0.0317 0.1143,0.0317 z"
       fill="#ffffff"
       id="path24" />
    <path
       d="m 16.4857,25.5873 c 0.1429,0 0.8572,0.0317 0.8572,-0.8254 0,-0.7937 -0.6858,-0.6349 -0.6858,-0.9524 0,-0.1587 0.1143,-0.2222 0.3143,-0.2222 0.0857,0 0.4,0.0317 0.4,0.0317 l 0.0857,-0.5714 c 0,0 -0.2,-0.0635 -0.5428,-0.0635 -0.4286,0 -0.8572,0.1905 -0.8572,0.8254 0,0.7302 0.7143,0.6667 0.7143,0.9524 0,0.1905 -0.2,0.2222 -0.3428,0.2222 -0.2572,0 -0.5143,-0.0952 -0.5143,-0.0952 l -0.0857,0.5714 c 0.0285,0.0635 0.1714,0.127 0.6571,0.127 z"
       fill="#ffffff"
       id="path26" />
    <path
       d="m 27.8857,22.5079 -0.1142,0.8572 c 0,0 -0.2286,-0.3175 -0.5429,-0.3175 -0.5143,0 -0.9714,0.6984 -0.9714,1.5238 0,0.5079 0.2285,1.0476 0.7143,1.0476 0.3428,0 0.5428,-0.2539 0.5428,-0.2539 l -0.0286,0.2222 h 0.5715 l 0.4285,-3.0476 z m -0.2571,1.6825 c 0,0.3493 -0.1429,0.7937 -0.4571,0.7937 -0.2,0 -0.3143,-0.1905 -0.3143,-0.5079 0,-0.508 0.2,-0.8254 0.4571,-0.8254 0.2,0 0.3143,0.1587 0.3143,0.5396 z"
       fill="#ffffff"
       id="path28" />
    <path
       d="m 12.0572,25.5555 0.3428,-2.2857 0.0572,2.2857 h 0.4 L 13.6,23.2698 13.2857,25.5555 h 0.6 l 0.4572,-3.0476 H 13.4 l -0.5714,1.873 -0.0286,-1.873 h -0.8286 l -0.4571,3.0476 z"
       fill="#ffffff"
       id="path30" />
    <path
       d="m 20.9143,25.5556 c 0.1715,-1.0477 0.2,-1.9048 0.6,-1.7461 0.0572,-0.4127 0.1429,-0.5714 0.2,-0.7301 0,0 -0.0285,0 -0.1143,0 -0.2571,0 -0.4571,0.3809 -0.4571,0.3809 L 21.2,23.1111 h -0.5428 l -0.3714,2.4762 h 0.6285 z"
       fill="#ffffff"
       id="path32" />
    <path
       d="m 24.4571,23.0159 c -0.4,0 -0.6857,0.127 -0.6857,0.127 l -0.0857,0.5396 c 0,0 0.2572,-0.1269 0.6286,-0.1269 0.2,0 0.3714,0.0317 0.3714,0.2222 0,0.127 -0.0286,0.1587 -0.0286,0.1587 0,0 -0.1714,0 -0.2571,0 -0.4857,0 -1.0286,0.2222 -1.0286,0.9524 0,0.5714 0.3429,0.6984 0.5429,0.6984 0.4,0 0.5714,-0.2857 0.6,-0.2857 l -0.0286,0.254 H 25 l 0.2286,-1.7461 c 0.0285,-0.7619 -0.5715,-0.7936 -0.7715,-0.7936 z M 24.6,24.4444 c 0,0.0953 -0.0571,0.6032 -0.4,0.6032 -0.1714,0 -0.2286,-0.1587 -0.2286,-0.2539 0,-0.1588 0.0857,-0.381 0.5143,-0.381 0.0857,0.0317 0.0857,0.0317 0.1143,0.0317 z"
       fill="#ffffff"
       id="path34" />
    <path
       d="m 25.7143,25.5556 c 0.1715,-1.0477 0.2,-1.9048 0.6,-1.7461 0.0572,-0.4127 0.1429,-0.5714 0.2,-0.7301 0,0 -0.0285,0 -0.1143,0 -0.2571,0 -0.4571,0.3809 -0.4571,0.3809 L 26,23.1111 h -0.5428 l -0.3714,2.4762 h 0.6285 z"
       fill="#ffffff"
       id="path36" />
    <path
       d="m 17.4286,25.0794 c 0,0.3809 0.2,0.5396 0.4571,0.5396 0.2,0 0.3715,-0.0634 0.4286,-0.0952 L 18.4,24.9841 c -0.0286,0 -0.0857,0.0318 -0.1428,0.0318 -0.2,0 -0.2286,-0.127 -0.2,-0.1905 l 0.1714,-1.1111 h 0.3143 l 0.0857,-0.6032 H 18.3429 L 18.4,22.7302"
       fill="#dce5e5"
       id="path38" />
    <path
       d="m 18.8,24.5079 c 0,0.8889 0.2572,1.1111 0.7143,1.1111 0.4286,0 0.6,-0.0952 0.6,-0.0952 l 0.1143,-0.6032 c 0,0 -0.3143,0.1587 -0.6,0.1587 -0.6286,0 -0.5143,-0.5079 -0.5143,-0.5079 h 1.1714 c 0,0 0.0857,-0.4127 0.0857,-0.5714 0,-0.4127 -0.2,-0.9206 -0.8285,-0.9206 -0.6,-0.0635 -0.7429,0.6349 -0.7429,1.4285 z m 0.7143,-0.9206 c 0.3143,0 0.3714,0.4127 0.3714,0.4444 h -0.7428 c 0,-0.0317 0.0571,-0.4444 0.3714,-0.4444 z"
       fill="#dce5e5"
       id="path40" />
    <path
       d="m 23.1429,25.5238 0.1143,-0.6984 c 0,0 -0.2857,0.1587 -0.4857,0.1587 -0.4,0 -0.5715,-0.3492 -0.5715,-0.7302 0,-0.7619 0.3429,-1.1745 0.7429,-1.1745 0.2857,0 0.5143,0.1904 0.5143,0.1904 l 0.0857,-0.6666 c 0,0 -0.3429,-0.1588 -0.6572,-0.1588 -0.6571,0 -1.0285,0.635 -1.0285,1.8413 0,0.7936 0.0571,1.3333 0.7428,1.3333 0.2286,0 0.5429,-0.0952 0.5429,-0.0952 z"
       fill="#dce5e5"
       id="path42" />
    <path
       d="m 14.4,23.7143 c 0,0 0.2572,-0.127 0.6286,-0.127 0.2,0 0.3714,0.0317 0.3714,0.2222 0,0.127 -0.0286,0.1587 -0.0286,0.1587 0,0 -0.1714,0 -0.2571,0 -0.4857,0 -1.0286,0.2223 -1.0286,0.9524 0,0.5714 0.3429,0.6984 0.5429,0.6984 0.4,0 0.5714,-0.2857 0.6,-0.2857 L 15.2,25.5873 h 0.5143 l 0.2286,-1.746 c 0,-0.7302 -0.5715,-0.7619 -0.8,-0.7619 z m 1.1714,0.7301 c 0,0.0953 -0.3428,0.6032 -0.6857,0.6032 -0.1714,0 -0.2285,-0.1587 -0.2285,-0.254 0,-0.1587 0.0857,-0.3809 0.5142,-0.3809 0.0858,0.0317 0.4,0.0317 0.4,0.0317 z"
       fill="#dce5e5"
       id="path44" />
    <path
       d="m 15.8572,25.5238 c 0,0 0.1714,0.0635 0.6571,0.0635 0.1429,0 0.8572,0.0317 0.8572,-0.8254 0,-0.7937 -0.6857,-0.6349 -0.6857,-0.9524 0,-0.1587 0.1143,-0.2222 0.3143,-0.2222 0.0857,0 0.4,0.0317 0.4,0.0317 l 0.0857,-0.5714 c 0,0 -0.2,-0.0635 -0.5429,-0.0635 -0.4286,0 -0.5714,0.1905 -0.5714,0.8254 0,0.7302 0.4286,0.6667 0.4286,0.9524 0,0.1905 -0.2,0.2222 -0.3429,0.2222"
       fill="#dce5e5"
       id="path46" />
    <path
       d="m 27.7715,23.3651 c 0,0 -0.2286,-0.3175 -0.5429,-0.3175 -0.5143,0 -0.6857,0.6984 -0.6857,1.5238 0,0.5079 -0.0572,1.0476 0.4286,1.0476 0.3428,0 0.5428,-0.2539 0.5428,-0.2539 l -0.0286,0.2222 h 0.5715 l 0.4285,-3.0476 z m -0.0286,0.8254 c 0,0.3492 -0.2572,0.7936 -0.5714,0.7936 -0.2,0 -0.3143,-0.1905 -0.3143,-0.5079 0,-0.508 0.2,-0.8254 0.4571,-0.8254 0.2,0 0.4286,0.1587 0.4286,0.5397 z"
       fill="#dce5e5"
       id="path48" />
    <path
       d="m 12.0572,25.5555 0.3428,-2.2857 0.0572,2.2857 h 0.4 L 13.6,23.2698 13.2857,25.5555 h 0.6 l 0.4572,-3.0476 h -0.7143 l -0.8,1.873 -0.0286,-1.873 h -0.3143 l -0.9714,3.0476 z"
       fill="#dce5e5"
       id="path50" />
    <path
       d="m 20.3143,25.5555 h 0.6 c 0.1714,-1.0476 0.2,-1.9047 0.6,-1.746 0.0571,-0.4127 0.1428,-0.5714 0.2,-0.7301 0,0 -0.0286,0 -0.1143,0 -0.2572,0 -0.4572,0.3809 -0.4572,0.3809 L 21.2,23.1111"
       fill="#dce5e5"
       id="path52" />
    <path
       d="m 23.6857,23.7143 c 0,0 0.2572,-0.127 0.6286,-0.127 0.2,0 0.3714,0.0317 0.3714,0.2222 0,0.127 -0.0286,0.1587 -0.0286,0.1587 0,0 -0.1714,0 -0.2571,0 -0.4857,0 -1.0286,0.2223 -1.0286,0.9524 0,0.5714 0.3429,0.6984 0.5429,0.6984 0.4,0 0.5714,-0.2857 0.6,-0.2857 l -0.0286,0.254 H 25 l 0.2286,-1.746 c 0,-0.7302 -0.5715,-0.7619 -0.8,-0.7619 z m 1.1714,0.7301 c 0,0.0953 -0.3428,0.6032 -0.6857,0.6032 -0.1714,0 -0.2285,-0.1587 -0.2285,-0.254 0,-0.1587 0.0857,-0.3809 0.5142,-0.3809 0.1143,0.0317 0.4,0.0317 0.4,0.0317 z"
       fill="#dce5e5"
       id="path54" />
    <path
       d="m 25.1143,25.5555 h 0.6 c 0.1714,-1.0476 0.2,-1.9047 0.6,-1.746 0.0572,-0.4127 0.1429,-0.5714 0.2,-0.7301 0,0 -0.0286,0 -0.1143,0 -0.2571,0 -0.4571,0.3809 -0.4571,0.3809 L 26,23.1111"
       fill="#dce5e5"
       id="path56" />
  </g>
  <path
     d="M 14.6593,6.5531904 13.5551,12.7995 h 1.7648 l 1.1035,-6.2463096 z m 5.3233,2.54441 c -0.6167,-0.2769 -0.9948,-0.4638 -0.9948,-0.7469 0.0075,-0.2575 0.3197,-0.5213 1.0168,-0.5213 0.5734,-0.0131 0.9948,0.1094 1.3145,0.2313 l 0.1602,0.065 0.2399,-1.3069 c -0.3486,-0.1225 -0.9013,-0.25745 -1.584,-0.25745 -1.7428,0 -2.97,0.82375 -2.9776,2.00185 -0.0144,0.8694 0.8786,1.3519 1.5469,1.6412996 0.6827,0.2969 0.9151,0.4894 0.9151,0.7531 -0.0076,0.405 -0.552,0.5919 -1.0601,0.5919 -0.704,0 -1.0821,-0.0963 -1.6562,-0.3219 l -0.2324,-0.0963 -0.2468,1.3582 c 0.4146,0.1675 1.177,0.315 1.9684,0.3225 1.8521,0 3.0573,-0.8113 3.0724,-2.0669 0.0061,-0.6887 -0.4648,-1.2162996 -1.4823,-1.6474996 z m 6.261,-2.52508 h -1.3654 c -0.4207,0 -0.7404,0.10998 -0.9226,0.50258 L 21.3341,12.7995 h 1.8521 l 0.5101,-1.2394 h 2.0722 l 0.2647,1.2444 h 1.6335 z M 24.21,10.3094 c 0.0357,0.0031 0.7109,-2.0231996 0.7109,-2.0231996 L 25.4585,10.3094 c 0,0 -0.8999,0 -1.2485,0 z M 12.0805,6.5531904 10.3514,10.797 10.163,9.9601004 c -0.3196996,-0.9657 -1.3219996,-2.015 -2.4405996,-2.5363 l 1.5833,5.3693996 H 11.173 l 2.7747,-6.2393196 h -1.8672 z"
     fill="#ffffff"
     id="path60" />
  <path
     d="m 9.5813004,7.3602004 c -0.1347,-0.4763 -0.5644,-0.79751 -1.148,-0.80437 h -2.7384 l -0.0282,0.11557 c 2.1361,0.4788 3.929,1.9519 4.5106996,3.3374996 z"
     fill="#efc75e"
     id="path62" />
  <defs
     id="defs67">
    <clipPath
       id="clip0">
      <rect
         width="18"
         height="20"
         fill="#ffffff"
         transform="translate(11,14)"
         id="rect64"
         x="0"
         y="0" />
    </clipPath>
  </defs>
</svg>
