<?xml version="1.0" encoding="UTF-8" standalone="no"?>
<svg
   xmlns:dc="http://purl.org/dc/elements/1.1/"
   xmlns:cc="http://creativecommons.org/ns#"
   xmlns:rdf="http://www.w3.org/1999/02/22-rdf-syntax-ns#"
   xmlns:svg="http://www.w3.org/2000/svg"
   xmlns="http://www.w3.org/2000/svg"
   width="33.333401"
   height="33.333401"
   viewBox="0 0 33.333401 33.333401"
   fill="none"
   version="1.1"
   id="svg17">
  <metadata
     id="metadata21">
    <rdf:RDF>
      <cc:Work
         rdf:about="">
        <dc:format>image/svg+xml</dc:format>
        <dc:type
           rdf:resource="http://purl.org/dc/dcmitype/StillImage" />
        <dc:title></dc:title>
      </cc:Work>
    </rdf:RDF>
  </metadata>
  <circle
     cx="16.6667"
     cy="16.6667"
     r="16.6667"
     fill="#01c852"
     id="circle4" />
  <g
     clip-path="url(#clip0)"
     id="g10"
     transform="translate(-3.3332996,-3.3332996)">
    <path
       d="m 20.3259,29.3228 c -1.9279,0 -3.3738,-0.4543 -4.3377,-1.3629 -0.9482,-0.9086 -1.4223,-2.1622 -1.4223,-3.7607 0,-0.5048 0.0553,-0.9591 0.166,-1.3629 h -1.1615 v -1.8677 h 2.0622 c 0.2844,-0.3534 0.6242,-0.6815 1.0193,-0.9844 0.395,-0.3029 0.8375,-0.5805 1.3274,-0.8329 h -4.4089 v -1.8677 h 7.917 c 0.4109,-0.4038 0.6163,-0.9339 0.6163,-1.5901 0,-0.5384 -0.1896,-0.9591 -0.5689,-1.262 -0.3634,-0.3028 -0.8928,-0.4543 -1.5881,-0.4543 -0.6321,0 -1.2721,0.0926 -1.92,0.2777 -0.6321,0.1851 -1.3432,0.4459 -2.1334,0.7824 L 14.8267,12.059 c 0.8217,-0.387 1.675,-0.6898 2.56,-0.9086 0.9007,-0.2356 1.8489,-0.3533 2.8444,-0.3533 1.6435,0 2.9472,0.429 3.9111,1.2872 0.9798,0.8413 1.4697,2.0696 1.4697,3.6849 0,0.5216 -0.0633,1.0264 -0.1897,1.5144 h 1.2089 v 1.8677 h -2.2044 c -0.3477,0.4207 -0.7585,0.774 -1.2326,1.0601 -0.4741,0.2692 -0.964,0.5216 -1.4697,0.7572 h 4.9067 v 1.8677 h -8.1067 c -0.3002,0.3701 -0.4503,0.8245 -0.4503,1.3629 0,0.6226 0.2054,1.1105 0.6163,1.4639 0.4108,0.3365 1.0271,0.5048 1.8489,0.5048 0.8533,0 1.6908,-0.101 2.5126,-0.3029 0.8217,-0.2187 1.6434,-0.5048 2.4651,-0.8581 v 3.1801 c -0.6795,0.3534 -1.4617,0.631 -2.3466,0.8329 -0.885,0.2019 -1.8331,0.3029 -2.8445,0.3029 z"
       fill="#ffffff"
       id="path6" />
    <rect
       x="15.4874"
       y="19.155001"
       width="10.7677"
       height="1.81318"
       fill="#01c852"
       id="rect8" />
  </g>
  <defs
     id="defs15">
    <clipPath
       id="clip0">
      <rect
         width="13.3333"
         height="18.6667"
         fill="#ffffff"
         transform="translate(13.3333,10.6667)"
         id="rect12"
         x="0"
         y="0" />
    </clipPath>
  </defs>
</svg>
