<?xml version="1.0" encoding="UTF-8" standalone="no"?>
<svg
   xmlns:dc="http://purl.org/dc/elements/1.1/"
   xmlns:cc="http://creativecommons.org/ns#"
   xmlns:rdf="http://www.w3.org/1999/02/22-rdf-syntax-ns#"
   xmlns:svg="http://www.w3.org/2000/svg"
   xmlns="http://www.w3.org/2000/svg"
   width="33.333351"
   height="33.333389"
   viewBox="0 0 33.333351 33.333389"
   fill="none"
   version="1.1"
   id="svg8">
  <metadata
     id="metadata14">
    <rdf:RDF>
      <cc:Work
         rdf:about="">
        <dc:format>image/svg+xml</dc:format>
        <dc:type
           rdf:resource="http://purl.org/dc/dcmitype/StillImage" />
        <dc:title></dc:title>
      </cc:Work>
    </rdf:RDF>
  </metadata>
  <defs
     id="defs12" />
  <path
     d="m 16.66675,33.33339 c 9.2047,0 16.6666,-7.4619 16.6666,-16.6667 C 33.33335,7.46189 25.87145,0 16.66675,0 7.46195,0 0,7.46189 0,16.66669 c 0,9.2048 7.46195,16.6667 16.66675,16.6667 z"
     fill="#2a5ada"
     id="path4" />
  <path
     d="m 16.66675,3.66669 -2.328,1.37156 -6.344,3.75684 -2.328,1.3716 v 13 l 2.328,1.3716 6.4022,3.7568 2.328,1.3716 2.328,-1.3716 6.2858,-3.7568 2.328,-1.3716 v -13 l -2.328,-1.3716 -6.344,-3.75684 z m -6.3439,16.7569 v -7.5138 l 6.3439,-3.7569 6.3439,3.7569 v 7.5138 l -6.3439,3.7569 z"
     fill="#f4f7fb"
     id="path6" />
</svg>
