<?xml version="1.0" encoding="UTF-8" standalone="no"?>
<svg
   xmlns:dc="http://purl.org/dc/elements/1.1/"
   xmlns:cc="http://creativecommons.org/ns#"
   xmlns:rdf="http://www.w3.org/1999/02/22-rdf-syntax-ns#"
   xmlns:svg="http://www.w3.org/2000/svg"
   xmlns="http://www.w3.org/2000/svg"
   width="33.333351"
   height="33.333389"
   viewBox="0 0 33.333351 33.333389"
   fill="none"
   version="1.1"
   id="svg8">
  <metadata
     id="metadata14">
    <rdf:RDF>
      <cc:Work
         rdf:about="">
        <dc:format>image/svg+xml</dc:format>
        <dc:type
           rdf:resource="http://purl.org/dc/dcmitype/StillImage" />
        <dc:title></dc:title>
      </cc:Work>
    </rdf:RDF>
  </metadata>
  <defs
     id="defs12" />
  <path
     d="m 16.66675,33.33339 c 9.2047,0 16.6666,-7.4619 16.6666,-16.6667 C 33.33335,7.46189 25.87145,0 16.66675,0 7.46195,0 0,7.46189 0,16.66669 c 0,9.2048 7.46195,16.6667 16.66675,16.6667 z"
     fill="#1a53f0"
     id="path4" />
  <path
     d="m 11.73075,17.37549 c -2.5542,0 -4.6248,2.0766 -4.6248,4.6382 0,2.5616 2.0708,4.6382 4.625,4.6382 2.5542,0 4.625,-2.0766 4.625,-4.6382 0,-2.5616 -2.0706,-4.6382 -4.625,-4.6382 z m 0,7.8734 c -1.78,0 -3.2242,-1.4476 -3.2242,-3.2336 0,-1.786 1.4436,-3.2336 3.2242,-3.2336 1.7806,0 3.2244,1.4476 3.2244,3.2336 -0.003,1.7844 -1.4448,3.2314 -3.2244,3.2336 z m 9.8772,-17.7672 c -2.5542,0 -4.625,2.0766 -4.625,4.6382 0,2.5616 2.0708,4.6382 4.625,4.6382 2.5542,0 4.625,-2.0766 4.625,-4.6382 0,-2.5616 -2.0704,-4.6384 -4.6249,-4.6384 z m 0,7.8734 c -1.78,0 -3.2242,-1.4476 -3.2242,-3.2336 0,-1.786 1.4429,-3.2336 3.2243,-3.2336 1.7815,0 3.2245,1.4476 3.2245,3.2336 -0.003,1.7852 -1.4458,3.2304 -3.2245,3.2334 z m -9.8772,-7.8736 c -2.2018,-0.0014 -4.1,1.5538 -4.5376,3.718 -0.4376,2.1642 0.7062,4.3378 2.7336,5.1972 0.9862,0.4143 2.0854,0.4748 3.1111,0.1714 1.0258,-0.3035 1.9152,-0.9522 2.5173,-1.8364 0.6022,-0.8841 0.8802,-1.9493 0.7868,-3.0149 -0.0933,-1.0657 -0.5522,-2.0663 -1.2988,-2.8323 h 1.3114 v -1.403 z m 3.2246,4.6382 c 0,1.7858 -1.4436,3.2336 -3.2244,3.2336 -1.7808,0 -3.2242,-1.4478 -3.2242,-3.2336 0,-1.7858 1.4434,-3.233 3.224,-3.233 1.7806,0 3.223,1.4482 3.2262,3.2336 h -0.0016 z"
     fill="#ffffff"
     id="path6" />
</svg>
