<?xml version="1.0" encoding="UTF-8" standalone="no"?>
<svg
   xmlns:dc="http://purl.org/dc/elements/1.1/"
   xmlns:cc="http://creativecommons.org/ns#"
   xmlns:rdf="http://www.w3.org/1999/02/22-rdf-syntax-ns#"
   xmlns:svg="http://www.w3.org/2000/svg"
   xmlns="http://www.w3.org/2000/svg"
   width="33.333401"
   height="33.333401"
   viewBox="0 0 33.333401 33.333401"
   fill="none"
   version="1.1"
   id="svg8">
  <metadata
     id="metadata14">
    <rdf:RDF>
      <cc:Work
         rdf:about="">
        <dc:format>image/svg+xml</dc:format>
        <dc:type
           rdf:resource="http://purl.org/dc/dcmitype/StillImage" />
        <dc:title></dc:title>
      </cc:Work>
    </rdf:RDF>
  </metadata>
  <defs
     id="defs12" />
  <circle
     cx="16.6667"
     cy="16.6667"
     r="16.6667"
     fill="#2f9e31"
     id="circle4" />
  <path
     d="m 14.7459,7.3568004 c 0,0 1.5437,1.7511 1.6825,3.1328996 0.1161,1.1566 -0.1329,1.8685 -0.6672,2.9009 -0.5858,1.1317 -1.0893,1.8182 -2.2337,2.3787 -1.1643,0.5702 -2.161,0.8962 -3.307,0.2901 -0.8257996,-0.4368 -1.1856996,-0.9799 -1.5083996,-1.8566 -0.3444,-0.9355 -0.3193,-1.6083 0,-2.5528 0.3134,-0.9272 0.8531,-1.2745 1.5083996,-2.0015996 0.5365,-0.5951 0.7753,-1.0391 1.4795,-1.4214 0.4817,-0.2615 1.3344,-0.4351 1.3344,-0.4351 0,0 -1.1003,-0.5319 -1.8276,-0.4351 -0.832,0.1107 -1.8274996,1.1313 -1.8274996,1.1313 0,0 -1.0827,1.1435 -1.5955,2.0015996 -0.5892,0.986 -0.8868,1.5986 -1.1023,2.7268 -0.20837,1.0905 -0.35826,1.792 0,2.8429 0.2596,0.7615 0.494,1.2139 1.1023,1.7405 0.7158,0.6196 1.3198,0.785 2.2626996,0.8702 0.978,0.0885 1.5823,-0.0643 2.4657,-0.4931 0.7688,-0.3731 1.0938,-0.773 1.7115,-1.3634 1.0157,-0.9707 1.6421,-1.5555 2.2047,-2.8429 0.4281,-0.9795 0.5242,-1.6031 0.6092,-2.6688 0.0468,-0.5872 0.098,-0.9275 0,-1.5083996 -0.1418,-0.8405 -0.8703,-2.0016 -0.8703,-2.0016 l 0.987,0.069 c 0,0 0.3202,0.4381 0.4704,0.7492 0.3967,0.8214 0.3839,1.3965996 0.3572,2.3083996 -0.033,1.1264 -0.2773,1.7597 -0.73,2.7916 -0.4366,0.995 -0.8594,1.465 -1.4907,2.3493 -0.7659,1.0726 -1.3292,1.5706 -2.1387,2.6107 -0.8248,1.0599 -1.3631,1.6083 -2.0423,2.7669 -0.9732,1.6602 -1.8210996,4.579 -1.8210996,4.579 H 16.5754 c 0,0 -0.626,-0.6915 -0.9106,-1.2098 -0.4566,-0.8319 -0.6616,-1.3925 -0.6504,-2.3415 0.0101,-0.8527 0.2195,-1.331 0.5724,-2.1073 0.3884,-0.8544 0.6891,-1.3271 1.3659,-1.9773 0.575,-0.5525 0.938,-0.8824 1.691,-1.1447 0.9643,-0.336 1.6675,-0.3814 2.6147,0 0.6466,0.2603 1.0349,0.4931 1.4309,1.0666 0.4236,0.6135 0.4802,1.1018 0.4813,1.8472 0.0015,0.9543 -0.2904,1.4967 -0.7805,2.3155 -0.4086,0.6827 -0.7611,0.9889 -1.3398,1.535 -0.7671,0.7239 -2.1854,1.587 -2.1854,1.587 0,0 0.84,0.4572 1.4179,0.4293 1.004,-0.0485 1.307,-0.8878 2.0163,-1.6001 0.9156,-0.9193 1.4303,-1.4971 1.9642,-2.6797 0.4838,-1.0713 0.6833,-1.7515 0.7025,-2.9268 0.0128,-0.7859 0.0673,-1.2813 -0.2602,-1.9958 -0.375,-0.8183 -0.811,-1.2378 -1.613,-1.6466 -0.8008,-0.4081 -1.3804,-0.4074 -2.2765,-0.3382 -0.9482,0.0733 -1.4925,0.2779 -2.3154,0.7545 -0.6834,0.3957 -0.987,0.7451 -1.548,1.3008 -0.8326,0.8247 -1.3242,1.3125 -1.8602,2.3545 -0.4005,0.7786 -0.5616,1.2609 -0.7285,2.1204 -0.1418,0.7301 -0.2557,1.1645 -0.1403,1.8992 0.0858,0.5456 0.6585,0.8274 0.4525,1.3399 -0.0773,0.1923 -0.1272,0.3358 -0.3122,0.4292 -0.3277,0.1656 -0.5514,-0.1979 -0.8365,-0.4292 -0.4773,-1.2618 0.095,-3.6163 0.095,-3.6163 0,0 0.4029,-1.2959 0.8326,-2.0424 0.4183,-0.7266 0.7556,-1.0716 1.3061,-1.704 0.598,-0.6872 0.93,-1.0899 1.6468,-1.6521 0.6533,-0.5124 1.045,-0.7915 1.8081,-1.1187 0.6413,-0.275 1.0201,-0.4624 1.7171,-0.4939 0.6977,-0.0315 1.0937,0.1165 1.7561,0.3378 0.7759,0.2591 1.0463,0.8812 1.8602,0.9626 0.4265,0.0426 0.695,0.0558 1.0927,-0.1041 0.5935,-0.2386 0.5374,-0.9294 1.1187,-1.1963 0.528,-0.2423 1.0439,0.2629 1.483,-0.1175 0.4849,-0.42 0.0707,-1.0057 0.2341,-1.626 0.1772,-0.6723 0.6635,-1.6521 0.6635,-1.6521 0,0 -1.2023,0.4173 -1.9513,0.2472 -0.3414,-0.0776 -0.4836,-0.3044 -0.8325,-0.3326 -0.6538,-0.0528 -0.9925,1.2619 -1.47,0.8122 -0.2207,-0.2079 -0.2731,-0.7268 -0.2731,-0.7268 0,0 -0.7641,-0.1924 -1.2358,-0.0854 -0.5674,0.1287 -0.8414,0.397 -1.2488,0.8122 -0.3813,0.3887 -0.7545,1.1724 -0.7545,1.1724 l 1.7171,0.1821 -3.7724,0.6635 c 0,0 0.5835,-1.4831 1.0276,-2.4014 0.3719,-0.7688 0.7494,-1.1229996 1.0277,-1.9303996 0.2123,-0.6161 0.3512,-1.6313 0.3512,-1.6313 z"
     fill="#f9cd41"
     id="path6" />
</svg>
