<?xml version="1.0" encoding="UTF-8" standalone="no"?>
<svg
   xmlns:dc="http://purl.org/dc/elements/1.1/"
   xmlns:cc="http://creativecommons.org/ns#"
   xmlns:rdf="http://www.w3.org/1999/02/22-rdf-syntax-ns#"
   xmlns:svg="http://www.w3.org/2000/svg"
   xmlns="http://www.w3.org/2000/svg"
   width="33.333351"
   height="33.333389"
   viewBox="0 0 33.333351 33.333389"
   fill="none"
   version="1.1"
   id="svg42">
  <metadata
     id="metadata46">
    <rdf:RDF>
      <cc:Work
         rdf:about="">
        <dc:format>image/svg+xml</dc:format>
        <dc:type
           rdf:resource="http://purl.org/dc/dcmitype/StillImage" />
        <dc:title></dc:title>
      </cc:Work>
    </rdf:RDF>
  </metadata>
  <path
     d="m 16.66675,33.33339 c 9.2047,0 16.6666,-7.4619 16.6666,-16.6667 C 33.33335,7.46189 25.87145,0 16.66675,0 7.46195,0 0,7.46189 0,16.66669 c 0,9.2048 7.46195,16.6667 16.66675,16.6667 z"
     fill="#f4f7fb"
     id="path4" />
  <path
     d="m 16.66675,33.33339 c 9.2047,0 16.6666,-7.4619 16.6666,-16.6667 C 33.33335,7.46189 25.87145,0 16.66675,0 7.46195,0 0,7.46189 0,16.66669 c 0,9.2048 7.46195,16.6667 16.66675,16.6667 z"
     fill="url(#paint0_angular)"
     id="path6"
     style="fill:url(#paint0_angular)" />
  <path
     d="m 16.66675,31.66669 c 8.2843,0 15,-6.7157 15,-15 0,-8.2843 -6.7157,-15 -15,-15 -8.2843,0 -15,6.7157 -15,15 0,8.2843 6.7157,15 15,15 z"
     fill="#f4f7fb"
     id="path8" />
  <g
     clip-path="url(#clip0)"
     id="g22"
     transform="translate(-3.33325,-3.33331)">
    <path
       d="m 14,27.5568 c 0.6524,0.7179 1.446,1.3036 2.3346,1.723 0.8886,0.4194 1.8546,0.6642 2.8419,0.7202 1.1795,-0.0605 2.2924,-0.5473 3.1176,-1.3637 1.6277,-1.3465 3.3366,-2.5987 5.1177,-3.75 l 1,-0.3977 c 0.4117,-0.1704 1.1176,-0.5682 1.7647,-1.3068 C 30.8823,22.2727 31,21.3068 31,20.9659 c -0.0782,-1.0752 -0.443,-2.1126 -1.0588,-3.0114 -1.6071,2.766 -3.9103,5.0959 -6.6967,6.7743 -2.7863,1.6784 -5.9659,2.651 -9.2445,2.828 z"
       fill="#0293d6"
       id="path10" />
    <path
       d="m 16.2354,11.4205 c 0.4391,-0.4481 0.968,-0.805 1.5546,-1.0492 0.5865,-0.2442 1.2184,-0.3706 1.8571,-0.3713 0.4047,-0.02616 0.8107,0.0257 1.1945,0.1525 0.3837,0.1268 0.7375,0.326 1.0408,0.5861 1.6873,1.1547 3.6971,1.7885 5.7647,1.8182 0.5294,0.0568 1.5883,0.2273 2.2941,1.0796 0.5294,0.6818 0.5883,1.4204 0.5883,1.7613 -0.0474,0.878 -0.2462,1.7421 -0.5883,2.5569 z"
       fill="#ebe638"
       id="path12" />
    <path
       d="M 14,27.5568 C 13.4706,27.5 12.7647,27.3295 11.9412,26.9886 11.1176,26.6477 10.1176,26.25 9.47059,25.1704 9.05882,24.4886 9,23.8068 9,23.3522 9.01436,22.1468 9.3163,20.9608 9.88235,19.8863 10.4455,18.5583 10.8214,17.1633 11,15.7386 l 0.2941,-1.1364 C 11.4706,14.0341 11.5882,13.4659 12,12.8977 l 0.6471,-0.6818 c 1.0687,-0.649 2.3334,-0.9294 3.5882,-0.7955 -1.6802,2.3216 -2.7599,4.9982 -3.1488,7.8057 -0.3889,2.8075 -0.0757,5.6642 0.9135,8.3307 z"
       fill="#bad147"
       id="path14" />
    <path
       d="m 16.2354,11.4205 c -0.0588,0 3.1765,0.1704 5.1765,0.8522 l 1.647,0.6819 c -0.647,-0.0569 -4.7647,-0.2273 -7.8823,2.7841 -3.9412,3.8636 -2.6471,9.1477 -2.5882,9.4318 -0.9134,-1.11 -1.3738,-2.5048 -1.2942,-3.9205 0.0775,-1.8789 0.5564,-3.7221 1.4068,-5.4137 0.8503,-1.6916 2.0536,-3.195 3.5344,-4.4158 z"
       fill="#78b650"
       id="path16" />
    <path
       d="m 24.1177,25.4545 c 1.1128,-1.954 1.6058,-4.1811 1.4176,-6.4038 -0.1883,-2.2228 -1.0496,-4.3429 -2.4765,-6.0962 1.7039,0.2752 3.2711,1.0719 4.4706,2.2728 0.7059,0.5681 1.5883,1.4204 2.4118,2.7272 -1.1631,2.9842 -3.1833,5.586 -5.8235,7.5 z"
       fill="#2f8260"
       id="path18" />
    <path
       d="m 26,15.4545 c -0.9412,-1.5341 -2.2941,-2.2159 -2.8824,-2.5 C 22.6471,12.8409 18.2353,12.159 14.8824,15.284 12.1765,17.784 12,21.0227 12,21.6477 c 0.0125,2.1413 0.7569,4.2186 2.1176,5.9091 1.7487,0.3252 3.5455,0.3252 5.2942,0 0.8823,-0.1705 2.9411,-0.5114 4.7058,-1.9887 0.2353,-0.2272 2.8236,-2.5568 3,-6.25 0,-0.625 0,-2.2159 -1.1176,-3.8636 z m -2.1176,8.2386 c -0.5463,0.574 -1.2101,1.032 -1.9493,1.345 -0.7392,0.313 -1.5377,0.4741 -2.3449,0.4732 -0.3529,0 -2.7058,-0.0568 -4.3529,-1.9318 C 15,23.2954 13.8235,21.9318 13.8824,19.8863 14,17.159 16.2353,15.5681 16.7059,15.2272 c 0.4117,-0.2841 1.4117,-0.9091 2.8823,-0.9659 0.353,-0.0568 1.5883,-0.1136 2.8236,0.5682 2.7058,1.4205 2.8235,4.8295 2.8235,5.0568 0,0.625 0,2.3296 -1.3529,3.8068 z"
       fill="#085229"
       id="path20" />
  </g>
  <defs
     id="defs40">
    <radialGradient
       id="paint0_angular"
       cx="0"
       cy="0"
       r="1"
       gradientUnits="userSpaceOnUse"
       gradientTransform="matrix(0,16.6667,-16.6667,0,16.66675,16.66669)">
      <stop
         stop-color="#0293D6"
         id="stop24" />
      <stop
         offset="0.208333"
         stop-color="#BAD147"
         id="stop26" />
      <stop
         offset="0.375"
         stop-color="#BAD147"
         id="stop28" />
      <stop
         offset="0.5"
         stop-color="#EBE638"
         id="stop30" />
      <stop
         offset="0.65625"
         stop-color="#EBE638"
         id="stop32" />
      <stop
         offset="0.802083"
         stop-color="#0293D6"
         id="stop34" />
    </radialGradient>
    <clipPath
       id="clip0">
      <rect
         width="22"
         height="20"
         fill="#ffffff"
         transform="translate(9,10)"
         id="rect37"
         x="0"
         y="0" />
    </clipPath>
  </defs>
</svg>
