<?xml version="1.0" encoding="UTF-8" standalone="no"?>
<svg
   xmlns:dc="http://purl.org/dc/elements/1.1/"
   xmlns:cc="http://creativecommons.org/ns#"
   xmlns:rdf="http://www.w3.org/1999/02/22-rdf-syntax-ns#"
   xmlns:svg="http://www.w3.org/2000/svg"
   xmlns="http://www.w3.org/2000/svg"
   version="1.1"
   id="Слой_1"
   x="0px"
   y="0px"
   viewBox="0 0 33.400002 33.400002"
   xml:space="preserve"
   width="33.400002"
   height="33.400002"><metadata
   id="metadata17"><rdf:RDF><cc:Work
       rdf:about=""><dc:format>image/svg+xml</dc:format><dc:type
         rdf:resource="http://purl.org/dc/dcmitype/StillImage" /><dc:title></dc:title></cc:Work></rdf:RDF></metadata><defs
   id="defs15" />
<style
   type="text/css"
   id="style2">
	.st0{fill:#C93D54;}
	.st1{fill:#FFFFFF;}
	.st2{fill:none;stroke:#FFFFFF;}
</style>
<circle
   class="st0"
   cx="16.700001"
   cy="16.700001"
   r="16.700001"
   id="circle4" />
<rect
   x="15.200001"
   y="10.700001"
   class="st1"
   width="3.2"
   height="15.3"
   id="rect6" />
<rect
   x="9.7000008"
   y="10.000001"
   class="st1"
   width="14"
   height="3.0999999"
   id="rect8" />
<path
   class="st2"
   d="m 25.600001,17.800001 c 0,0 0,0.2 -0.5,0.5 -0.4,0.2 -1,0.5 -1.9,0.7 -1.6,0.4 -3.9,0.7 -6.5,0.7 -2.6,0 -4.9,-0.3 -6.5,-0.7 -0.8000002,-0.2 -1.5000002,-0.4 -1.9000002,-0.7 -0.4,-0.3 -0.5,-0.4 -0.5,-0.5 0,0 0,-0.2 0.5,-0.5 0.4,-0.2 1,-0.5 1.9000002,-0.7 1.6,-0.4 3.9,-0.7 6.5,-0.7 2.6,0 4.9,0.3 6.5,0.7 0.8,0.2 1.5,0.4 1.9,0.7 0.5,0.3 0.5,0.5 0.5,0.5 z"
   id="path10" />
</svg>
