<svg width="40" height="40" viewBox="0 0 40 40" fill="none" xmlns="http://www.w3.org/2000/svg">
<circle cx="20" cy="20" r="20" fill="#F4F7FB"/>
<circle cx="20" cy="20" r="16.6667" fill="#53AE94"/>
<rect x="18.5294" y="13.9693" width="3.17984" height="15.2632" fill="white"/>
<rect x="27.0572" y="13.3334" width="3.12202" height="14.0491" transform="rotate(90 27.0572 13.3334)" fill="white"/>
<path d="M28.8987 21.1385C28.8987 21.1758 28.8563 21.3546 28.4083 21.6194C27.9937 21.8645 27.3605 22.1025 26.5342 22.3091C24.8893 22.7203 22.5904 22.98 20.0326 22.98C17.4748 22.98 15.176 22.7203 13.5311 22.3091C12.7048 22.1025 12.0716 21.8645 11.657 21.6194C11.209 21.3546 11.1666 21.1758 11.1666 21.1385C11.1666 21.1011 11.209 20.9223 11.657 20.6575C12.0716 20.4124 12.7048 20.1744 13.5311 19.9678C15.176 19.5566 17.4748 19.2969 20.0326 19.2969C22.5904 19.2969 24.8893 19.5566 26.5342 19.9678C27.3605 20.1744 27.9937 20.4124 28.4083 20.6575C28.8563 20.9223 28.8987 21.1011 28.8987 21.1385Z" stroke="white"/>
</svg>
