<?xml version="1.0" encoding="UTF-8" standalone="no"?>
<svg
   xmlns:dc="http://purl.org/dc/elements/1.1/"
   xmlns:cc="http://creativecommons.org/ns#"
   xmlns:rdf="http://www.w3.org/1999/02/22-rdf-syntax-ns#"
   xmlns:svg="http://www.w3.org/2000/svg"
   xmlns="http://www.w3.org/2000/svg"
   version="1.1"
   id="Слой_1"
   x="0px"
   y="0px"
   viewBox="0 0 33.400002 33.400002"
   xml:space="preserve"
   width="33.400002"
   height="33.400002"><metadata
   id="metadata14"><rdf:RDF><cc:Work
       rdf:about=""><dc:format>image/svg+xml</dc:format><dc:type
         rdf:resource="http://purl.org/dc/dcmitype/StillImage" /><dc:title></dc:title></cc:Work></rdf:RDF></metadata><defs
   id="defs12" />
<style
   type="text/css"
   id="style2">
	.st0{fill:#FF060A;}
	.st1{fill:#FFFFFF;}
</style>
<circle
   class="st0"
   cx="16.700001"
   cy="16.700001"
   r="16.700001"
   id="circle4" />
<g
   id="tron"
   transform="translate(-3.2999992,-3.2999992)">
	<path
   class="st1"
   d="m 32.2,16.8 c -1.1,-1 -2.6,-2.6 -3.9,-3.7 L 28.2,13 c -0.1,-0.1 -0.3,-0.2 -0.4,-0.2 v 0 c -3,-0.6 -17,-3.2 -17.3,-3.1 -0.1,0 -0.1,0 -0.2,0.1 L 10.2,9.9 C 10.1,10 10,10.1 10,10.2 v 0 0.3 0 c 1.6,4.4 7.8,18.7 9,22.1 0.1,0.2 0.2,0.7 0.5,0.7 h 0.1 c 0.1,0 0.7,-0.8 0.7,-0.8 0,0 10.7,-13 11.8,-14.4 0.1,-0.2 0.3,-0.4 0.4,-0.5 0,-0.3 -0.1,-0.6 -0.3,-0.8 z m -9.1,1.5 4.6,-3.8 2.7,2.5 z M 21.3,18 13.5,11.6 26.2,13.9 Z m 0.7,1.7 8,-1.3 -9.2,11.1 z m -9.6,-7.5 8.3,7 -1.2,10.2 z"
   id="path6" />
</g>
</svg>
