<?xml version="1.0" encoding="UTF-8" standalone="no"?>
<svg
   xmlns:dc="http://purl.org/dc/elements/1.1/"
   xmlns:cc="http://creativecommons.org/ns#"
   xmlns:rdf="http://www.w3.org/1999/02/22-rdf-syntax-ns#"
   xmlns:svg="http://www.w3.org/2000/svg"
   xmlns="http://www.w3.org/2000/svg"
   width="33.333351"
   height="33.333389"
   viewBox="0 0 33.333351 33.333389"
   fill="none"
   version="1.1"
   id="svg22">
  <metadata
     id="metadata28">
    <rdf:RDF>
      <cc:Work
         rdf:about="">
        <dc:format>image/svg+xml</dc:format>
        <dc:type
           rdf:resource="http://purl.org/dc/dcmitype/StillImage" />
        <dc:title></dc:title>
      </cc:Work>
    </rdf:RDF>
  </metadata>
  <defs
     id="defs26" />
  <path
     d="m 16.66675,33.33339 c 9.2047,0 16.6666,-7.4619 16.6666,-16.6667 C 33.33335,7.46189 25.87145,0 16.66675,0 7.46195,0 0,7.46189 0,16.66669 c 0,9.2048 7.46195,16.6667 16.66675,16.6667 z"
     fill="#002868"
     id="path4" />
  <path
     d="m 25.23475,26.86669 h -17.136 c -0.8976,0 -1.63195,-0.7344 -1.63195,-1.632 v -17.136 c 0,-0.8976 0.73435,-1.63201 1.63195,-1.63201 h 17.136 c 0.8976,0 1.632,0.73441 1.632,1.63201 v 17.136 c 0,0.8976 -0.7344,1.632 -1.632,1.632 z"
     fill="#ffffff"
     id="path6" />
  <path
     d="m 10.44745,24.81309 c -0.0538,0 -0.0973,-0.0489 -0.0973,-0.1027 v -2.741 c 0,-0.0538 -0.0435,-0.1027 -0.0972,-0.1027 h -0.9677 c -0.0544,0 -0.1026,-0.0435 -0.1026,-0.0973 v -0.5297 c 0,-0.0537 0.0489,-0.1027 0.1026,-0.1027 h 2.9784 c 0.0538,0 0.1027,0.0483 0.1027,0.1027 v 0.5297 c 0,0.0538 -0.0489,0.0973 -0.1027,0.0973 h -0.9622 c -0.0537,0 -0.1026,0.0483 -0.1026,0.1027 v 2.741 c 0,0.0538 -0.0436,0.1027 -0.0973,0.1027 z"
     fill="#002868"
     id="path8" />
  <path
     d="m 15.33945,21.23969 c 0,-0.0537 0.0435,-0.1027 0.0972,-0.1027 h 0.6487 c 0.0537,0 0.1027,0.0483 0.1027,0.1027 v 1.8707 c 0,1.1084 -0.627,1.7517 -1.6218,1.7517 -0.9894,0 -1.6109,-0.6433 -1.6109,-1.7517 v -1.8707 c 0,-0.0537 0.0435,-0.1027 0.0972,-0.1027 h 0.6487 c 0.0538,0 0.1027,0.0483 0.1027,0.1027 v 1.8972 c 0,0.5461 0.2809,0.935 0.7677,0.935 0.4869,0 0.7678,-0.3889 0.7678,-0.935 z"
     fill="#002868"
     id="path10" />
  <path
     d="m 19.16705,22.33719 c -0.0863,0 -0.1135,-0.0326 -0.1462,-0.0972 -0.1135,-0.2652 -0.3624,-0.4325 -0.7405,-0.4325 -0.3407,0 -0.6269,0.119 -0.6269,0.3461 0,0.2489 0.2652,0.3516 0.8486,0.4216 0.8867,0.1027 1.3947,0.3733 1.3947,1.0758 0,0.7895 -0.6923,1.2056 -1.5783,1.2056 -0.7677,0 -1.4273,-0.3733 -1.53,-1.1567 -0.0109,-0.0754 0.0272,-0.1026 0.1027,-0.1026 h 0.595 c 0.0755,0 0.119,0.0326 0.1407,0.0918 0.081,0.2597 0.357,0.4596 0.7569,0.4596 0.3515,0 0.6596,-0.1298 0.6596,-0.4052 0,-0.3298 -0.3244,-0.389 -0.9731,-0.4706 -0.746,-0.0972 -1.2648,-0.3135 -1.2648,-1.0003 0,-0.6868 0.5896,-1.1784 1.5137,-1.1784 0.8323,0 1.411,0.4488 1.53,1.1193 0.0163,0.0755 -0.0055,0.1244 -0.0864,0.1244 h -0.5957 z"
     fill="#002868"
     id="path12" />
  <path
     d="m 20.63195,24.81309 c -0.0538,0 -0.0973,-0.0489 -0.0973,-0.1027 v -3.4707 c 0,-0.0537 0.0435,-0.1027 0.0973,-0.1027 h 1.4701 c 1.0921,0 1.9407,0.7514 1.9407,1.849 0,1.0812 -0.8377,1.8271 -1.9407,1.8271 z m 1.4701,-0.7303 c 0.5896,0 1.0486,-0.4651 1.0486,-1.1084 0,-0.6433 -0.4597,-1.1084 -1.054,-1.1084 h -0.6107 c -0.0537,0 -0.0972,0.0483 -0.0972,0.1027 v 2.0162 c 0,0.0537 0.0435,0.0972 0.0972,0.0972 h 0.6161 z"
     fill="#002868"
     id="path14" />
  <path
     d="m 26.32275,19.11469 h -19.312 c -0.1496,0 -0.272,-0.1224 -0.272,-0.272 v -10.744 c 0,-0.748 0.612,-1.36 1.36,-1.36 h 17.136 c 0.748,0 1.36,0.612 1.36,1.36 v 10.744 c 0,0.1496 -0.1224,0.272 -0.272,0.272 z"
     fill="#002868"
     id="path16" />
  <path
     d="m 17.66825,16.90879 h -1.768 c -0.1122,0 -0.204,-0.0918 -0.204,-0.204 v -7.48 c 0,-0.1122 0.0918,-0.204 0.204,-0.204 h 1.768 c 0.1122,0 0.204,0.0918 0.204,0.204 v 7.48 c 0,0.1122 -0.0918,0.204 -0.204,0.204 z"
     fill="#ffffff"
     id="path18" />
  <path
     d="m 20.67865,11.19679 h -8.024 c -0.1122,0 -0.204,-0.0918 -0.204,-0.204 v -1.768 c 0,-0.1122 0.0918,-0.204 0.204,-0.204 h 8.024 c 0.1122,0 0.204,0.0918 0.204,0.204 v 1.768 c 0,0.1122 -0.0918,0.204 -0.204,0.204 z"
     fill="#ffffff"
     id="path20" />
</svg>
