<svg width="40" height="40" viewBox="0 0 40 40" fill="none" xmlns="http://www.w3.org/2000/svg">
<path d="M20 40C31.0457 40 40 31.0457 40 20C40 8.9543 31.0457 0 20 0C8.9543 0 0 8.9543 0 20C0 31.0457 8.9543 40 20 40Z" fill="#F4F7FB"/>
<path d="M20 36.6667C29.2047 36.6667 36.6666 29.2048 36.6666 20C36.6666 10.7952 29.2047 3.33331 20 3.33331C10.7952 3.33331 3.33325 10.7952 3.33325 20C3.33325 29.2048 10.7952 36.6667 20 36.6667Z" fill="#2775CA"/>
<path d="M24.9501 22.85C24.9501 20.225 23.3751 19.325 20.2251 18.9501C17.9751 18.65 17.5251 18.0501 17.5251 17C17.5251 15.9498 18.2751 15.275 19.7751 15.275C21.1251 15.275 21.8751 15.725 22.2501 16.85C22.3251 17.075 22.5501 17.225 22.7751 17.225H23.975C24.2751 17.225 24.5001 17 24.5001 16.7001V16.625C24.2 14.975 22.85 13.7 21.1251 13.5501V11.7501C21.1251 11.45 20.9001 11.225 20.5251 11.15H19.4001C19.1001 11.15 18.8751 11.375 18.8 11.7501V13.475C16.55 13.7751 15.1251 15.275 15.1251 17.1501C15.1251 19.6251 16.6251 20.6 19.7751 20.9751C21.8751 21.35 22.5501 21.8 22.5501 23.0001C22.5501 24.2001 21.5 25.0251 20.0751 25.0251C18.125 25.0251 17.45 24.2 17.225 23.075C17.1501 22.7751 16.9251 22.625 16.7001 22.625H15.425C15.1251 22.625 14.9001 22.85 14.9001 23.15V23.2251C15.2 25.1 16.4001 26.45 18.8751 26.8251V28.6251C18.8751 28.925 19.1001 29.15 19.475 29.225H20.6C20.9001 29.225 21.1251 29 21.2001 28.6251V26.8251C23.4501 26.45 24.9501 24.875 24.9501 22.85V22.85Z" fill="white"/>
<path d="M16.175 30.7249C10.325 28.6251 7.32494 22.1001 9.50006 16.3249C10.6251 13.1749 13.1001 10.775 16.175 9.65C16.4751 9.50006 16.625 9.27506 16.625 8.89994V7.85C16.625 7.54994 16.4751 7.32494 16.175 7.25006C16.0999 7.25006 15.95 7.25006 15.8749 7.32494C8.75 9.57494 4.84994 17.1501 7.09994 24.275C8.44994 28.4749 11.675 31.7 15.8749 33.05C16.175 33.1999 16.4751 33.05 16.5499 32.7499C16.625 32.6751 16.625 32.6 16.625 32.4501V31.3999C16.625 31.1749 16.4 30.8751 16.175 30.7249ZM24.1251 7.32494C23.825 7.175 23.5249 7.32494 23.4501 7.625C23.375 7.70006 23.375 7.77494 23.375 7.92506V8.975C23.375 9.27506 23.6 9.57494 23.825 9.72506C29.675 11.8249 32.6751 18.3499 30.4999 24.1251C29.3749 27.2751 26.8999 29.675 23.825 30.8C23.5249 30.9499 23.375 31.1749 23.375 31.5501V32.6C23.375 32.9001 23.5249 33.1251 23.825 33.1999C23.9001 33.1999 24.05 33.1999 24.1251 33.1251C31.25 30.8751 35.1501 23.2999 32.9001 16.175C31.5501 11.9 28.2499 8.67494 24.1251 7.32494V7.32494Z" fill="white"/>
</svg>
