<?xml version="1.0" encoding="UTF-8" standalone="no"?>
<svg
   xmlns:dc="http://purl.org/dc/elements/1.1/"
   xmlns:cc="http://creativecommons.org/ns#"
   xmlns:rdf="http://www.w3.org/1999/02/22-rdf-syntax-ns#"
   xmlns:svg="http://www.w3.org/2000/svg"
   xmlns="http://www.w3.org/2000/svg"
   width="33.333351"
   height="33.333389"
   viewBox="0 0 33.333351 33.333389"
   fill="none"
   version="1.1"
   id="svg10">
  <metadata
     id="metadata16">
    <rdf:RDF>
      <cc:Work
         rdf:about="">
        <dc:format>image/svg+xml</dc:format>
        <dc:type
           rdf:resource="http://purl.org/dc/dcmitype/StillImage" />
        <dc:title></dc:title>
      </cc:Work>
    </rdf:RDF>
  </metadata>
  <defs
     id="defs14" />
  <path
     d="m 16.66675,33.33339 c 9.2047,0 16.6666,-7.4619 16.6666,-16.6667 C 33.33335,7.46189 25.87145,0 16.66675,0 7.46195,0 0,7.46189 0,16.66669 c 0,9.2048 7.46195,16.6667 16.66675,16.6667 z"
     fill="#2775ca"
     id="path4" />
  <path
     d="m 21.61685,19.51669 c 0,-2.625 -1.575,-3.525 -4.725,-3.8999 -2.25,-0.3001 -2.7,-0.9 -2.7,-1.9501 0,-1.0502 0.75,-1.725 2.25,-1.725 1.35,0 2.1,0.45 2.475,1.575 0.075,0.225 0.3,0.375 0.525,0.375 h 1.1999 c 0.3001,0 0.5251,-0.225 0.5251,-0.5249 v -0.0751 c -0.3001,-1.65 -1.6501,-2.925 -3.375,-3.0749 v -1.8 c 0,-0.3001 -0.225,-0.5251 -0.6,-0.6001 h -1.125 c -0.3,0 -0.525,0.225 -0.6001,0.6001 v 1.7249 c -2.25,0.3001 -3.6749,1.8 -3.6749,3.6751 0,2.475 1.5,3.4499 4.65,3.825 2.1,0.3749 2.775,0.8249 2.775,2.025 0,1.2 -1.0501,2.025 -2.475,2.025 -1.9501,0 -2.6251,-0.8251 -2.8501,-1.9501 -0.0749,-0.2999 -0.2999,-0.45 -0.5249,-0.45 h -1.2751 c -0.2999,0 -0.5249,0.225 -0.5249,0.525 v 0.0751 c 0.2999,1.8749 1.5,3.2249 3.975,3.6 v 1.8 c 0,0.2999 0.225,0.5249 0.5999,0.5999 h 1.125 c 0.3001,0 0.5251,-0.225 0.6001,-0.5999 v -1.8 c 2.25,-0.3751 3.75,-1.9501 3.75,-3.9751 z"
     fill="#ffffff"
     id="path6" />
  <path
     d="m 12.84175,27.39159 c -5.85,-2.0998 -8.85006,-8.6248 -6.67494,-14.4 1.12504,-3.15 3.60004,-5.5499 6.67494,-6.6749 0.3001,-0.14994 0.45,-0.37494 0.45,-0.75006 V 4.51669 c 0,-0.30006 -0.1499,-0.52506 -0.45,-0.59994 -0.0751,0 -0.225,0 -0.3001,0.07488 -7.1249,2.25 -11.02496,9.82516 -8.77496,16.95006 1.35,4.1999 4.57506,7.425 8.77496,8.775 0.3001,0.1499 0.6002,0 0.675,-0.3001 0.0751,-0.0748 0.0751,-0.1499 0.0751,-0.2998 v -1.0502 c 0,-0.225 -0.225,-0.5248 -0.45,-0.675 z m 7.9501,-23.39996 c -0.3001,-0.14994 -0.6002,0 -0.675,0.30006 -0.0751,0.07506 -0.0751,0.14994 -0.0751,0.30006 v 1.04994 c 0,0.30006 0.225,0.59994 0.45,0.75006 5.85,2.09984 8.8501,8.62484 6.6749,14.40004 -1.125,3.15 -3.6,5.5499 -6.6749,6.6749 -0.3001,0.1499 -0.45,0.3749 -0.45,0.7501 v 1.0499 c 0,0.3001 0.1499,0.5251 0.45,0.5999 0.0751,0 0.225,0 0.3001,-0.0748 7.1249,-2.25 11.025,-9.8252 8.775,-16.9501 -1.35,-4.275 -4.6502,-7.50006 -8.775,-8.85006 z"
     fill="#ffffff"
     id="path8" />
</svg>
