<?xml version="1.0" encoding="UTF-8" standalone="no"?>
<svg
   xmlns:dc="http://purl.org/dc/elements/1.1/"
   xmlns:cc="http://creativecommons.org/ns#"
   xmlns:rdf="http://www.w3.org/1999/02/22-rdf-syntax-ns#"
   xmlns:svg="http://www.w3.org/2000/svg"
   xmlns="http://www.w3.org/2000/svg"
   width="33.329987"
   height="33.330002"
   viewBox="0 0 33.329987 33.330002"
   fill="none"
   version="1.1"
   id="svg15">
  <metadata
     id="metadata19">
    <rdf:RDF>
      <cc:Work
         rdf:about="">
        <dc:format>image/svg+xml</dc:format>
        <dc:type
           rdf:resource="http://purl.org/dc/dcmitype/StillImage" />
        <dc:title></dc:title>
      </cc:Work>
    </rdf:RDF>
  </metadata>
  <path
     d="m 16.66333,33.32997 c 9.2047,0 16.6666,-7.4619 16.6666,-16.6667 0,-9.2048 -7.4619,-16.66669 -16.6666,-16.66669 -9.2048,0 -16.66675,7.46189 -16.66675,16.66669 0,9.2048 7.46195,16.6667 16.66675,16.6667 z"
     fill="#f4f7fb"
     id="path4" />
  <g
     clip-path="url(#clip0)"
     id="g8"
     transform="translate(-3.33667,-3.33673)">
    <path
       d="m 29.0938,25.7674 c 1.2047,1.6164 2.447,3.2704 3.6893,4.9245 -2.4846,2.9321 -5.5716,4.8117 -9.2986,5.6011 -4.1411,0.8646 -8.0564,0.2255 -11.8587,-1.8796 3.3882,-2.5186 6.7011,-4.9997 10.0516,-7.4807 0.753,0.7142 1.4682,1.4285 2.1835,2.1051 0.7906,0.7519 0.4894,0.7895 1.5059,0.2256 1.3929,-0.7894 2.5599,-1.8796 3.4635,-3.1953 0.0376,-0.0752 0.1129,-0.1504 0.1505,-0.2255 -0.0376,0 0,0 0.113,-0.0752 z m -14.7951,3.308 c -0.9411,0.7143 -1.807,1.3533 -2.6729,2.03 -0.64,0.4886 -1.2799,0.9397 -1.91993,1.4284 C 9.44234,32.7594 9.25411,32.7594 8.95294,32.4962 6.09181,29.94 4.28478,26.7823 3.60714,23.0232 2.92951,19.2265 3.53185,15.6177 5.33888,12.1969 c 0.03765,-0.0752 0.11294,-0.188 0.15059,-0.2632 0,-0.0376 0.03764,-0.0376 0.11294,-0.0751 2.48466,3.2704 5.00699,6.5409 7.49159,9.8113 -0.0752,0.1128 -0.1129,0.188 -0.1882,0.2632 -0.7529,0.7894 -1.5058,1.5788 -2.2964,2.3306 -0.2259,0.2256 -0.2635,0.4135 -0.113,0.6767 0.7906,1.5036 1.8824,2.7441 3.2376,3.7591 0.1883,0.1128 0.3389,0.2256 0.5647,0.3759 z M 28.3409,5.73115 c -1.2047,0.8646 -2.4094,1.72921 -3.6141,2.55622 -2.0706,1.46606 -4.1411,2.96973 -6.174,4.43583 -0.2635,0.1879 -0.4518,0.2255 -0.6777,-0.0376 -0.6776,-0.7143 -1.3929,-1.3533 -2.0705,-2.0676 -0.1882,-0.1879 -0.3765,-0.2255 -0.64,-0.1127 -1.6188,0.827 -2.8988,1.9923 -3.9529,3.4584 -0.0753,0.0752 -0.1506,0.1879 -0.2259,0.3007 C 10.3835,13.475 9.81881,12.7607 9.25411,12.0089 8.65177,11.2195 8.08707,10.4301 7.52237,9.67825 7.33414,9.41511 7.29649,9.22715 7.56002,8.96401 10.4588,5.76874 14.0352,3.88917 18.3269,3.43807 c 3.3882,-0.37591 6.6258,0.30074 9.6375,1.91717 0.1129,0.07518 0.2259,0.11277 0.3388,0.18795 0,0.11278 0,0.15037 0.0377,0.18796 z M 34.4772,28.286 c -0.7906,-1.015 -1.5058,-1.9548 -2.2211,-2.8945 -1.6565,-2.1803 -3.3129,-4.3982 -5.007,-6.5785 -0.2259,-0.3008 -0.2259,-0.4887 0.0377,-0.7519 0.7152,-0.7142 1.3929,-1.4284 2.1082,-2.1427 0.1882,-0.1879 0.2635,-0.3759 0.1129,-0.639 -0.8282,-1.5789 -1.9576,-2.8946 -3.4258,-3.9471 -0.113,-0.0752 -0.2259,-0.188 -0.3765,-0.2632 0.1129,-0.1127 0.2259,-0.1879 0.3012,-0.2631 1.4305,-1.09016 2.8611,-2.14272 4.2917,-3.23287 0.2258,-0.18796 0.4141,-0.26314 0.6776,0 3.5764,3.23287 5.4964,7.25517 5.6846,12.10447 0.0753,2.8193 -0.5647,5.4883 -1.8447,8.0069 -0.1129,0.1504 -0.2258,0.3384 -0.3388,0.6015 z"
       fill="#231815"
       id="path6" />
  </g>
  <defs
     id="defs13">
    <clipPath
       id="clip0">
      <rect
         width="33.330002"
         height="33.330002"
         fill="#ffffff"
         transform="translate(3.33667,3.33673)"
         id="rect10"
         x="0"
         y="0" />
    </clipPath>
  </defs>
</svg>
